<?xml version="1.0" encoding="UTF-8" standalone="no"?>
<!-- Created with Inkscape (http://www.inkscape.org/) -->

<svg
   width="210mm"
   height="297mm"
   viewBox="0 0 210 297"
   version="1.1"
   id="svg1"
   inkscape:version="1.4.3 (0d15f75042, 2025-12-25)"
   sodipodi:docname="pandora.svg"
   xml:space="preserve"
   xmlns:inkscape="http://www.inkscape.org/namespaces/inkscape"
   xmlns:sodipodi="http://sodipodi.sourceforge.net/DTD/sodipodi-0.dtd"
   xmlns="http://www.w3.org/2000/svg"
   xmlns:svg="http://www.w3.org/2000/svg"><sodipodi:namedview
     id="namedview1"
     pagecolor="#ffffff"
     bordercolor="#000000"
     borderopacity="0.25"
     inkscape:showpageshadow="2"
     inkscape:pageopacity="0.0"
     inkscape:pagecheckerboard="0"
     inkscape:deskcolor="#d1d1d1"
     inkscape:document-units="mm"
     inkscape:zoom="2.8284271"
     inkscape:cx="303.87914"
     inkscape:cy="333.93118"
     inkscape:window-width="1908"
     inkscape:window-height="1028"
     inkscape:window-x="0"
     inkscape:window-y="0"
     inkscape:window-maximized="1"
     inkscape:current-layer="layer1"
     showgrid="false"
     showguides="true" /><defs
     id="defs1"><rect
       x="166.91269"
       y="275.85189"
       width="8.9189986"
       height="24.845782"
       id="rect1" /></defs><g
     inkscape:label="Camada 1"
     inkscape:groupmode="layer"
     id="layer1"><text
       xml:space="preserve"
       transform="scale(0.26458333)"
       id="text1"
       style="font-size:16px;line-height:0.6;font-family:'Motter Tektura';-inkscape-font-specification:'Motter Tektura, Normal';writing-mode:lr-tb;direction:ltr;white-space:pre;shape-inside:url(#rect1);display:inline;fill:#000000;stroke-width:0.377953" /><text
       xml:space="preserve"
       style="font-size:4.23333px;line-height:0.6;font-family:'Motter Tektura';-inkscape-font-specification:'Motter Tektura, Normal';writing-mode:lr-tb;direction:ltr;fill:#000000;stroke-width:0.1"
       x="44.330872"
       y="115.29398"
       id="text2"><tspan
         sodipodi:role="line"
         id="tspan2"
         style="stroke-width:0.1"
         x="44.330872"
         y="115.29398" /></text><g
       id="g39"
       style="fill:#000000"
       transform="matrix(1.0011021,0,0,0.93996749,-28.051264,-6.0968154)"><path
         d="m 70.754584,102.75778 v 1.28623 h 0.9 v -1.28623 z"
         style="fill:#000000;stroke-width:0.101068"
         id="path16"
         sodipodi:nodetypes="ccccc" /><path
         d="m 71.832104,102.75778 v 1.28623 h 0.8 v -1.28623 z"
         style="fill:#000000;stroke-width:0.0952878"
         id="path32"
         sodipodi:nodetypes="ccccc" /><path
         d="m 72.809623,102.75778 v 1.28623 h 0.7 v -1.28623 z"
         style="fill:#000000;stroke-width:0.0891336"
         id="path33"
         sodipodi:nodetypes="ccccc" /><path
         d="m 73.687143,102.75778 v 1.28623 h 0.6 v -1.28623 z"
         style="fill:#000000;stroke-width:0.0825217"
         id="path34"
         sodipodi:nodetypes="ccccc" /><path
         d="m 74.464662,102.75778 v 1.28623 h 0.5 v -1.28623 z"
         style="fill:#000000;stroke-width:0.0753317"
         id="path35"
         sodipodi:nodetypes="ccccc" /><path
         d="m 75.142182,102.75778 v 1.28623 h 0.4 v -1.28623 z"
         style="fill:#000000;stroke-width:0.0673787"
         id="path36"
         sodipodi:nodetypes="ccccc" /><path
         d="m 75.719702,102.75778 v 1.28623 h 0.299999 v -1.28623 z"
         style="fill:#000000;stroke-width:0.0583517"
         id="path37"
         sodipodi:nodetypes="ccccc" /><path
         d="m 76.19722,102.75778 v 1.28623 h 0.2 v -1.28623 z"
         style="fill:#000000;stroke-width:0.047644"
         id="path38"
         sodipodi:nodetypes="ccccc" /><path
         d="m 76.57474,102.75778 v 1.28623 h 0.1 v -1.28623 z"
         style="fill:#000000;stroke-width:0.0336894"
         id="path39"
         sodipodi:nodetypes="ccccc" /></g><g
       id="g55"
       transform="translate(-27.973277,-12.309036)"><path
         d="m 86.308499,102.34928 v -2.34526 h -0.440266 v 0.3302 h -0.0085 c -0.169333,-0.25824 -0.469899,-0.393704 -0.795866,-0.393704 -0.842432,0 -1.244599,0.673104 -1.244599,1.244604 0,0.61806 0.452967,1.22343 1.244599,1.22343 0.3175,0 0.626533,-0.13547 0.795866,-0.42333 h 0.0085 v 0.36406 z m -0.431799,-1.1684 c 0,0.44874 -0.3556,0.8255 -0.817033,0.8255 -0.465666,0 -0.800099,-0.40216 -0.800099,-0.8255 0,-0.3683 0.262466,-0.8382 0.804332,-0.8382 0.452967,0 0.8128,0.33867 0.8128,0.8382 z"
         id="text4-1"
         style="font-weight:500;font-size:4.23333px;line-height:0.6;font-family:'ITC Avant Garde Gothic';-inkscape-font-specification:'ITC Avant Garde Gothic, Medium';fill:#000000;stroke-width:0.1"
         aria-label="Pandora"
         sodipodi:nodetypes="cccccsssccccsssss" /><path
         d="m 71.211784,101.11315 h 0.448733 c 0.749299,0 1.104899,-0.38947 1.104899,-0.94827 0,-0.558797 -0.3556,-0.948263 -1.104899,-0.948263 h -0.905933 v 3.132663 h 0.4572 z m 0,-1.477433 h 0.448733 c 0.5207,0 0.647699,0.296333 0.647699,0.529163 0,0.23284 -0.126999,0.52917 -0.647699,0.52917 h -0.448733 z"
         id="path48"
         style="font-weight:500;font-size:4.23333px;line-height:0.6;font-family:'ITC Avant Garde Gothic';-inkscape-font-specification:'ITC Avant Garde Gothic, Medium';fill:#000000;stroke-width:0.1"
         aria-label="Pandora"
         sodipodi:nodetypes="cssscccccssscc" /><path
         d="m 75.141162,102.34928 v -2.34526 h -0.440266 v 0.3302 h -0.0085 c -0.169333,-0.25824 -0.469899,-0.393704 -0.795866,-0.393704 -0.842432,0 -1.244599,0.673104 -1.244599,1.244604 0,0.61806 0.452967,1.22343 1.244599,1.22343 0.3175,0 0.626533,-0.13547 0.795866,-0.42333 h 0.0085 v 0.36406 z m -0.431799,-1.1684 c 0,0.44874 -0.3556,0.8255 -0.817033,0.8255 -0.465666,0 -0.800099,-0.40216 -0.800099,-0.8255 0,-0.3683 0.262466,-0.8382 0.804332,-0.8382 0.452967,0 0.8128,0.33867 0.8128,0.8382 z"
         id="path49"
         style="font-weight:500;font-size:4.23333px;line-height:0.6;font-family:'ITC Avant Garde Gothic';-inkscape-font-specification:'ITC Avant Garde Gothic, Medium';fill:#000000;stroke-width:0.1"
         aria-label="Pandora"
         sodipodi:nodetypes="cccccsssccccsssss" /><path
         d="m 77.457979,102.34928 v -1.38853 c -0.0042,-0.26247 -0.05503,-0.44873 -0.148167,-0.60113 -0.169333,-0.26247 -0.465666,-0.419104 -0.829733,-0.419104 -0.09313,0 -0.448733,0 -0.685799,0.313264 h -0.0085 v -0.24976 h -0.410633 v 2.34526 h 0.440267 v -1.27846 c 0,-0.4699 0.249766,-0.72814 0.618066,-0.72814 0.584199,0 0.584199,0.55034 0.584199,0.73237 v 1.27423 z"
         id="path50"
         style="font-weight:500;font-size:4.23333px;line-height:0.6;font-family:'ITC Avant Garde Gothic';-inkscape-font-specification:'ITC Avant Garde Gothic, Medium';fill:#000000;stroke-width:0.1"
         aria-label="Pandora"
         sodipodi:nodetypes="cccsccccccssscc" /><path
         d="M 80.062126,102.34928 V 99.216617 H 79.62186 v 1.075263 h -0.0085 c -0.169333,-0.2159 -0.469899,-0.351364 -0.795866,-0.351364 -0.829732,0 -1.219199,0.673104 -1.219199,1.244604 0,0.61806 0.440267,1.22343 1.219199,1.22343 0.3429,0 0.643466,-0.13547 0.829733,-0.3937 h 0.0085 v 0.33443 z m -0.406399,-1.1684 c 0,0.44874 -0.3556,0.8255 -0.817033,0.8255 -0.465666,0 -0.800099,-0.40216 -0.800099,-0.8255 0,-0.3683 0.262466,-0.8382 0.804332,-0.8382 0.452967,0 0.8128,0.33867 0.8128,0.8382 z"
         id="path51"
         style="font-weight:500;font-size:4.23333px;line-height:0.6;font-family:'ITC Avant Garde Gothic';-inkscape-font-specification:'ITC Avant Garde Gothic, Medium';fill:#000000;stroke-width:0.1"
         aria-label="Pandora"
         sodipodi:nodetypes="cccccsssccccsssss" /><path
         d="m 82.738231,101.16818 c 0,-0.66886 -0.554566,-1.227664 -1.265765,-1.227664 -0.728133,0 -1.265766,0.579964 -1.265766,1.219204 0,0.59266 0.478367,1.24883 1.265766,1.24883 0.795866,0 1.265765,-0.66887 1.265765,-1.24037 z m -0.440266,0 c 0,0.4445 -0.351366,0.8382 -0.825499,0.8382 -0.491066,0 -0.825499,-0.41063 -0.825499,-0.83396 0,-0.4191 0.330199,-0.82974 0.825499,-0.82974 0.495299,0 0.825499,0.41064 0.825499,0.8255 z"
         id="path52"
         style="font-weight:500;font-size:4.23333px;line-height:0.6;font-family:'ITC Avant Garde Gothic';-inkscape-font-specification:'ITC Avant Garde Gothic, Medium';fill:#000000;stroke-width:0.1"
         aria-label="Pandora"
         sodipodi:nodetypes="ssssssssss" /><path
         d="m 83.327279,102.34928 v -1.2827 c 0,-0.33443 0.118534,-0.51223 0.258234,-0.58843 0.105833,-0.055 0.2524,-0.0847 0.320133,-0.0847 v -0.38449 c -0.110066,0.004 -0.413267,-0.05546 -0.599533,0.20701 h -0.0085 v -0.21198 H 82.88698 v 2.34526 z"
         id="path53"
         style="font-weight:500;font-size:4.23333px;line-height:0.6;font-family:'ITC Avant Garde Gothic';-inkscape-font-specification:'ITC Avant Garde Gothic, Medium';fill:#000000;stroke-width:0.1"
         aria-label="Pandora"
         sodipodi:nodetypes="csccccccccc" /></g><g
       id="g2"
       transform="translate(-14.353646,-4.5640624)"><path
         d="m 57.292686,100.36902 v 1.28623 h 0.9 v -1.28623 z"
         style="fill:#000000;stroke-width:0.101068"
         id="path16-0"
         sodipodi:nodetypes="ccccc" /><path
         d="m 58.400736,100.35662 v 1.28623 h 0.7 v -1.28623 z"
         style="fill:#000000;stroke-width:0.0891336"
         id="path33-8"
         sodipodi:nodetypes="ccccc" /><path
         d="m 59.308786,100.36489 v 1.28623 h 0.5 v -1.28623 z"
         style="fill:#000000;stroke-width:0.0753317"
         id="path35-4"
         sodipodi:nodetypes="ccccc" /><path
         d="m 60.016836,100.36902 v 1.28623 h 0.299999 v -1.28623 z"
         style="fill:#000000;stroke-width:0.0583517"
         id="path37-9"
         sodipodi:nodetypes="ccccc" /><path
         d="m 60.524885,100.36902 v 1.28623 h 0.1 v -1.28623 z"
         style="fill:#000000;stroke-width:0.0336894"
         id="path39-1"
         sodipodi:nodetypes="ccccc" /></g><g
       id="g3"
       transform="matrix(1,0,0,0.42253836,-11.575524,53.169761)"><g
         id="g2-9"
         transform="matrix(1.2842377,0,0,0.59251931,-19.278833,38.482207)"><path
           d="m 57.292686,100.36902 v 1.28623 h 0.9 v -1.28623 z"
           style="fill:#000000;stroke-width:0.101068"
           id="path16-0-2"
           sodipodi:nodetypes="ccccc" /><path
           d="m 58.400736,100.35662 v 1.28623 h 0.7 v -1.28623 z"
           style="fill:#000000;stroke-width:0.0891336"
           id="path33-8-0"
           sodipodi:nodetypes="ccccc" /><path
           d="m 59.308786,100.36489 v 1.28623 h 0.5 v -1.28623 z"
           style="fill:#000000;stroke-width:0.0753317"
           id="path35-4-2"
           sodipodi:nodetypes="ccccc" /><path
           d="m 60.016836,100.36902 v 1.28623 h 0.299999 v -1.28623 z"
           style="fill:#000000;stroke-width:0.0583517"
           id="path37-9-3"
           sodipodi:nodetypes="ccccc" /><path
           d="m 60.524885,100.36902 v 1.28623 h 0.1 v -1.28623 z"
           style="fill:#000000;stroke-width:0.0336894"
           id="path39-1-7"
           sodipodi:nodetypes="ccccc" /></g><g
         id="g2-9-9"
         transform="matrix(1.2877468,0,0,0.59251931,-15.033924,38.482207)"><path
           d="m 57.292686,100.36902 v 1.28623 h 0.9 v -1.28623 z"
           style="fill:#000000;stroke-width:0.101068"
           id="path16-0-2-4"
           sodipodi:nodetypes="ccccc" /><path
           d="m 58.400736,100.35662 v 1.28623 h 0.7 v -1.28623 z"
           style="fill:#000000;stroke-width:0.0891336"
           id="path33-8-0-7"
           sodipodi:nodetypes="ccccc" /><path
           d="m 59.308786,100.36489 v 1.28623 h 0.5 v -1.28623 z"
           style="fill:#000000;stroke-width:0.0753317"
           id="path35-4-2-8"
           sodipodi:nodetypes="ccccc" /><path
           d="m 60.016836,100.36902 v 1.28623 h 0.299999 v -1.28623 z"
           style="fill:#000000;stroke-width:0.0583517"
           id="path37-9-3-4"
           sodipodi:nodetypes="ccccc" /><path
           d="m 60.524885,100.36902 v 1.28623 h 0.1 v -1.28623 z"
           style="fill:#000000;stroke-width:0.0336894"
           id="path39-1-7-5"
           sodipodi:nodetypes="ccccc" /></g></g><g
       id="g57"
       transform="matrix(0.56172256,0,0,0.56172256,2.7807922,36.31418)"><path
         d="m 86.660686,103.44282 v -2.34526 H 86.22042 v 0.3302 h -0.0085 c -0.169333,-0.25824 -0.469899,-0.39371 -0.795866,-0.39371 -0.842432,0 -1.244599,0.67311 -1.244599,1.24461 0,0.61806 0.452967,1.22343 1.244599,1.22343 0.3175,0 0.626533,-0.13547 0.795866,-0.42333 h 0.0085 v 0.36406 z m -0.431799,-1.1684 c 0,0.44874 -0.3556,0.8255 -0.817033,0.8255 -0.465666,0 -0.800099,-0.40216 -0.800099,-0.8255 0,-0.3683 0.262466,-0.8382 0.804332,-0.8382 0.452967,0 0.8128,0.33867 0.8128,0.8382 z"
         id="text4-1-3"
         style="font-weight:500;font-size:4.23333px;line-height:0.6;font-family:'ITC Avant Garde Gothic';-inkscape-font-specification:'ITC Avant Garde Gothic, Medium';fill:#000000;stroke-width:0.1"
         aria-label="Pandora"
         sodipodi:nodetypes="cccccsssccccsssss" /><path
         d="m 71.563971,102.20669 h 0.448733 c 0.749299,0 1.104899,-0.38947 1.104899,-0.94827 0,-0.5588 -0.3556,-0.94826 -1.104899,-0.94826 h -0.905933 v 3.13266 h 0.4572 z m 0,-1.47743 h 0.448733 c 0.5207,0 0.647699,0.29633 0.647699,0.52916 0,0.23284 -0.126999,0.52917 -0.647699,0.52917 h -0.448733 z"
         id="path48-2"
         style="font-weight:500;font-size:4.23333px;line-height:0.6;font-family:'ITC Avant Garde Gothic';-inkscape-font-specification:'ITC Avant Garde Gothic, Medium';fill:#000000;stroke-width:0.1"
         aria-label="Pandora"
         sodipodi:nodetypes="cssscccccssscc" /><path
         d="m 75.493349,103.44282 v -2.34526 h -0.440266 v 0.3302 h -0.0085 c -0.169333,-0.25824 -0.469899,-0.39371 -0.795866,-0.39371 -0.842432,0 -1.244599,0.67311 -1.244599,1.24461 0,0.61806 0.452967,1.22343 1.244599,1.22343 0.3175,0 0.626533,-0.13547 0.795866,-0.42333 h 0.0085 v 0.36406 z m -0.431799,-1.1684 c 0,0.44874 -0.3556,0.8255 -0.817033,0.8255 -0.465666,0 -0.800099,-0.40216 -0.800099,-0.8255 0,-0.3683 0.262466,-0.8382 0.804332,-0.8382 0.452967,0 0.8128,0.33867 0.8128,0.8382 z"
         id="path49-1"
         style="font-weight:500;font-size:4.23333px;line-height:0.6;font-family:'ITC Avant Garde Gothic';-inkscape-font-specification:'ITC Avant Garde Gothic, Medium';fill:#000000;stroke-width:0.1"
         aria-label="Pandora"
         sodipodi:nodetypes="cccccsssccccsssss" /><path
         d="m 77.810166,103.44282 v -1.38853 c -0.0042,-0.26247 -0.05503,-0.44873 -0.148167,-0.60113 -0.169333,-0.26247 -0.465666,-0.41911 -0.829733,-0.41911 -0.09313,0 -0.448733,0 -0.685799,0.31327 h -0.0085 v -0.24976 h -0.410633 v 2.34526 h 0.440267 v -1.27846 c 0,-0.4699 0.249766,-0.72814 0.618066,-0.72814 0.584199,0 0.584199,0.55034 0.584199,0.73237 v 1.27423 z"
         id="path50-5"
         style="font-weight:500;font-size:4.23333px;line-height:0.6;font-family:'ITC Avant Garde Gothic';-inkscape-font-specification:'ITC Avant Garde Gothic, Medium';fill:#000000;stroke-width:0.1"
         aria-label="Pandora"
         sodipodi:nodetypes="cccsccccccssscc" /><path
         d="m 80.414313,103.44282 v -3.13266 h -0.440266 v 1.07526 h -0.0085 c -0.169333,-0.2159 -0.469899,-0.35137 -0.795866,-0.35137 -0.829732,0 -1.219199,0.67311 -1.219199,1.24461 0,0.61806 0.440267,1.22343 1.219199,1.22343 0.3429,0 0.643466,-0.13547 0.829733,-0.3937 h 0.0085 v 0.33443 z m -0.406399,-1.1684 c 0,0.44874 -0.3556,0.8255 -0.817033,0.8255 -0.465666,0 -0.800099,-0.40216 -0.800099,-0.8255 0,-0.3683 0.262466,-0.8382 0.804332,-0.8382 0.452967,0 0.8128,0.33867 0.8128,0.8382 z"
         id="path51-9"
         style="font-weight:500;font-size:4.23333px;line-height:0.6;font-family:'ITC Avant Garde Gothic';-inkscape-font-specification:'ITC Avant Garde Gothic, Medium';fill:#000000;stroke-width:0.1"
         aria-label="Pandora"
         sodipodi:nodetypes="cccccsssccccsssss" /><path
         d="m 83.090418,102.26172 c 0,-0.66886 -0.554566,-1.22767 -1.265765,-1.22767 -0.728133,0 -1.265766,0.57997 -1.265766,1.21921 0,0.59266 0.478367,1.24883 1.265766,1.24883 0.795866,0 1.265765,-0.66887 1.265765,-1.24037 z m -0.440266,0 c 0,0.4445 -0.351366,0.8382 -0.825499,0.8382 -0.491066,0 -0.825499,-0.41063 -0.825499,-0.83396 0,-0.4191 0.330199,-0.82974 0.825499,-0.82974 0.495299,0 0.825499,0.41064 0.825499,0.8255 z"
         id="path52-9"
         style="font-weight:500;font-size:4.23333px;line-height:0.6;font-family:'ITC Avant Garde Gothic';-inkscape-font-specification:'ITC Avant Garde Gothic, Medium';fill:#000000;stroke-width:0.1"
         aria-label="Pandora"
         sodipodi:nodetypes="ssssssssss" /><path
         d="m 83.679466,103.44282 v -1.2827 c 0,-0.33443 0.118534,-0.51223 0.258234,-0.58843 0.105833,-0.055 0.2524,-0.0847 0.320133,-0.0847 v -0.38449 c -0.110066,0.004 -0.413267,-0.0555 -0.599533,0.20701 h -0.0085 v -0.21198 h -0.410633 v 2.34526 z"
         id="path53-1"
         style="font-weight:500;font-size:4.23333px;line-height:0.6;font-family:'ITC Avant Garde Gothic';-inkscape-font-specification:'ITC Avant Garde Gothic, Medium';fill:#000000;stroke-width:0.1"
         aria-label="Pandora"
         sodipodi:nodetypes="csccccccccc" /></g><text
       xml:space="preserve"
       style="font-size:1.41111px;line-height:0.6;font-family:S-CID-Gona;-inkscape-font-specification:'S-CID-Gona, Normal';writing-mode:lr-tb;direction:ltr;fill:#000000;stroke-width:0.1"
       x="48.44899"
       y="91.627373"
       id="text13"><tspan
         sodipodi:role="line"
         id="tspan13"
         style="font-weight:normal;stroke-width:0.1"
         x="48.44899"
         y="91.627373">Foundation</tspan></text><path
       id="path14"
       style="fill:#000000;stroke-width:0.123693"
       d="m 78.281811,75.561796 h -0.323998 l -0.03161,3.999999 0.09721,3.999999 h 0.19279 l 0.09721,-3.999999 z m 0.539997,0 -0.03161,3.999999 0.09721,4.000001 h 0.192791 l 0.09721,-4.000001 -0.03158,-3.999999 z m -1.403992,0.150817 h -0.323997 l -0.03161,3.848773 0.09721,3.848774 h 0.192793 l 0.09721,-3.848774 z m 2.267985,0 -0.03161,3.848767 0.09721,3.848768 h 0.19279 l 0.0972,-3.848768 -0.03158,-3.848767 z m -3.131979,0.3613 h -0.323999 l -0.03161,3.487467 0.09721,3.487465 h 0.192792 l 0.09721,-3.487465 z m 3.995975,0 -0.03161,3.487467 0.09721,3.487465 h 0.192792 l 0.09721,-3.487465 -0.03158,-3.487467 z m -4.859971,0.650507 h -0.323998 l -0.03161,2.836958 0.09721,2.83696 h 0.19279 l 0.09721,-2.83696 z m 5.723965,8.3e-4 -0.03161,2.836544 0.09721,2.836544 h 0.192793 l 0.09721,-2.836544 -0.03158,-2.836544 z m -6.506596,1.264553 h -0.323997 l -0.03161,1.571577 0.09721,1.571575 h 0.19279 l 0.0972,-1.571575 z m 7.288799,0 -0.03161,1.571577 0.09721,1.571575 h 0.192793 l 0.09721,-1.571575 -0.03158,-1.571577 z"
       sodipodi:nodetypes="cccccccccccccccccccccccccccccccccccccccccccccccccccccccccccccccccccccc" /><text
       xml:space="preserve"
       style="font-style:normal;font-variant:normal;font-weight:normal;font-stretch:normal;font-size:3.175px;line-height:0.6;font-family:'Motter Tektura';-inkscape-font-specification:'Motter Tektura';writing-mode:lr-tb;direction:ltr;fill:#000000;stroke-width:0.1"
       x="83.513931"
       y="80.838852"
       id="text14"><tspan
         sodipodi:role="line"
         id="tspan14"
         style="font-style:normal;font-variant:normal;font-weight:600;font-stretch:normal;font-size:3.175px;font-family:'ITC Avant Garde Gothic';-inkscape-font-specification:'ITC Avant Garde Gothic Semi-Bold';stroke-width:0.1"
         x="83.513931"
         y="80.838852">COVENANT</tspan></text><g
       id="g47"
       transform="translate(-3.5037683e-4,0.40003546)"><text
         xml:space="preserve"
         style="font-style:normal;font-variant:normal;font-weight:500;font-stretch:condensed;font-size:1.41111px;line-height:0.6;font-family:'ITC Avant Garde Gothic';-inkscape-font-specification:'ITC Avant Garde Gothic Medium Condensed';writing-mode:lr-tb;direction:ltr;fill:#000000;stroke-width:0.1"
         x="83.556625"
         y="81.78009"
         id="text45"><tspan
           sodipodi:role="line"
           id="tspan45"
           style="font-style:normal;font-variant:normal;font-weight:500;font-stretch:normal;font-size:1.41111px;font-family:'ITC Avant Garde Gothic';-inkscape-font-specification:'ITC Avant Garde Gothic Medium';stroke-width:0.1"
           x="83.556625"
           y="81.78009">الميثاق</tspan></text><text
         xml:space="preserve"
         style="font-style:normal;font-variant:normal;font-weight:500;font-stretch:condensed;font-size:1.41111px;line-height:0.6;font-family:'ITC Avant Garde Gothic';-inkscape-font-specification:'ITC Avant Garde Gothic Medium Condensed';writing-mode:lr-tb;direction:ltr;fill:#000000;stroke-width:0.1"
         x="88.25573"
         y="81.856941"
         id="text46"><tspan
           sodipodi:role="line"
           id="tspan46"
           style="font-style:normal;font-variant:normal;font-weight:500;font-stretch:normal;font-size:1.41111px;font-family:'ITC Avant Garde Gothic';-inkscape-font-specification:'ITC Avant Garde Gothic Medium';stroke-width:0.1"
           x="88.25573"
           y="81.856941">盟约</tspan></text><text
         xml:space="preserve"
         style="font-style:normal;font-variant:normal;font-weight:500;font-stretch:normal;font-size:1.41111px;line-height:0.6;font-family:'ITC Avant Garde Gothic';-inkscape-font-specification:'ITC Avant Garde Gothic Medium';writing-mode:lr-tb;direction:ltr;fill:#000000;stroke-width:0.1"
         x="91.047508"
         y="81.874672"
         id="text47"><tspan
           sodipodi:role="line"
           id="tspan47"
           style="font-style:normal;font-variant:normal;font-weight:normal;font-stretch:normal;font-family:S-CID-Gona;-inkscape-font-specification:S-CID-Gona;stroke-width:0.1"
           x="91.047508"
           y="81.874672"> ちかい</tspan></text></g></g></svg>
